<?xml version="1.0" standalone="no"?>
<!DOCTYPE svg PUBLIC "-//W3C//DTD SVG 20010904//EN"
 "http://www.w3.org/TR/2001/REC-SVG-20010904/DTD/svg10.dtd">
<svg version="1.0" xmlns="http://www.w3.org/2000/svg"
 width="512.000000pt" height="512.000000pt" viewBox="0 0 512.000000 512.000000"
 preserveAspectRatio="xMidYMid meet">

<g transform="translate(0.000000,512.000000) scale(0.100000,-0.100000)"
fill="#000000" stroke="none">
<path d="M775 4976 c-163 -37 -307 -118 -422 -240 -87 -91 -142 -182 -185
-306 l-33 -95 0 -470 c0 -458 1 -472 23 -548 90 -310 333 -528 653 -583 77
-13 159 -15 498 -12 382 4 411 6 485 27 285 80 503 302 582 591 26 96 33 832
10 969 -55 317 -269 559 -578 653 -70 21 -90 22 -523 24 -347 2 -464 0 -510
-10z"/>
<path d="M3365 4974 c-330 -72 -573 -328 -631 -666 -23 -133 -15 -871 10 -968
61 -233 227 -435 441 -536 168 -79 172 -79 675 -79 431 0 448 1 525 23 283 80
497 290 577 568 23 77 23 88 23 549 l0 470 -33 95 c-47 134 -101 221 -201 321
-100 100 -187 154 -321 201 l-95 33 -450 2 c-371 2 -462 -1 -520 -13z"/>
<path d="M797 2385 c-309 -58 -551 -278 -639 -582 -22 -76 -23 -90 -23 -548
l0 -470 33 -95 c47 -134 101 -221 201 -321 100 -100 187 -154 321 -201 l95
-33 470 0 c461 0 472 0 549 23 278 80 489 295 568 577 22 77 23 94 23 525 0
503 0 507 -79 675 -100 212 -294 374 -525 438 -71 19 -104 21 -496 23 -332 2
-436 0 -498 -11z"/>
<path d="M3415 2389 c-265 -40 -496 -212 -611 -454 -75 -158 -77 -169 -81
-626 -5 -452 1 -522 57 -667 98 -253 324 -442 596 -497 69 -14 144 -16 520
-13 l439 3 95 33 c134 47 221 101 321 201 100 100 154 187 201 321 l33 95 0
470 c0 461 0 472 -23 549 -81 279 -295 490 -577 568 -76 21 -101 22 -495 24
-228 1 -442 -2 -475 -7z"/>
</g>
</svg>
